<svg xmlns="http://www.w3.org/2000/svg" viewBox="0 0 35.42 41.5"><defs><style>.cls-1{fill:#49be5d;}.cls-2{fill:none;stroke:#f4d61e;stroke-miterlimit:10;}</style></defs><title>Asset 1</title><g id="Layer_2" data-name="Layer 2"><g id="Layer_2-2" data-name="Layer 2"><polygon class="cls-1" points="7.17 0 14.5 0 14.5 15.67 23.17 15.67 23.17 0 29.17 0 32.17 3 32.17 41.5 4.67 41.5 4.67 8 7.17 0"/><path class="cls-2" d="M0,22.17c1.09,0,1.09,1,2.18,1s1.09-1,2.19-1,1.1,1,2.19,1,1.1-1,2.19-1,1.1,1,2.19,1,1.1-1,2.19-1,1.1,1,2.19,1"/><path class="cls-2" d="M0,24.83c1.09,0,1.09,1,2.18,1s1.09-1,2.19-1,1.1,1,2.19,1,1.1-1,2.19-1,1.1,1,2.19,1,1.1-1,2.19-1,1.1,1,2.19,1"/><path class="cls-2" d="M0,27.5c1.09,0,1.09,1,2.18,1s1.09-1,2.19-1,1.1,1,2.19,1,1.1-1,2.19-1,1.1,1,2.19,1,1.1-1,2.19-1,1.1,1,2.19,1"/><path class="cls-2" d="M3.08,1.5c1.09,0,1.09,1,2.18,1s1.09-1,2.19-1,1.1,1,2.19,1,1.1-1,2.19-1,1.1,1,2.19,1,1.1-1,2.19-1,1.1,1,2.19,1"/><path class="cls-2" d="M20.08,1.5c1.09,0,1.09,1,2.18,1s1.09-1,2.19-1,1.1,1,2.19,1,1.1-1,2.19-1,1.1,1,2.19,1,1.1-1,2.19-1,1.1,1,2.19,1"/></g></g></svg>