<svg xmlns="http://www.w3.org/2000/svg" viewBox="0 0 767.85 501.16"><defs><style>.cls-1{fill:#e53473;}.cls-1,.cls-2,.cls-3,.cls-4{fill-rule:evenodd;}.cls-2{fill:#f8bf07;}.cls-3{fill:#76b828;}.cls-4{fill:#fff;}</style></defs><title>boom_logo</title><g id="Layer_2" data-name="Layer 2"><g id="Layer_1-2" data-name="Layer 1"><path class="cls-1" d="M708.73,212.55a137.55,137.55,0,0,0,16.9-66.21c0-75.74-61.15-137.52-137-137.52a136.23,136.23,0,0,0-86,30.45A121.5,121.5,0,0,0,374.5,45a121.46,121.46,0,0,0-129-8.92A126,126,0,0,0,157.1,0C88.11,0,31.42,55.41,31.42,124.65A123.61,123.61,0,0,0,50.71,191,130.06,130.06,0,0,0,0,293.82C0,362.37,53.14,417.14,119.4,424.2l6,32.43c4.27,22.87,19.19,44.53,44.6,44.53H598c25.34,0,39.72-21.49,44.5-44L648.71,428c1.23,0,2.47.06,3.7.06,63.59,0,115.44-51.36,115.44-115A115.08,115.08,0,0,0,708.73,212.55ZM652.41,407.42a95.41,95.41,0,0,1-20-2.11l-10.08,47.54c-3.14,14.79-10.94,27.67-24.31,27.67H170c-13.37,0-21.54-12.78-24.31-27.67l-9-48.55-2.76,0c-62.57,0-113.29-49.48-113.29-110.51,0-42.32,24.39-79.08,60.2-97.64A103.13,103.13,0,0,1,52,124.65c0-57.45,47-104,105-104a105.21,105.21,0,0,1,84.72,42.53A98.55,98.55,0,0,1,303,42.3c28.37,0,53.8,11.56,71,29.85,17.17-17.09,41.74-27.79,69-27.79a98.48,98.48,0,0,1,61.51,21.09,115.78,115.78,0,0,1,84-36C652.89,29.45,705,81.78,705,146.34a116.72,116.72,0,0,1-27.59,75.57A94.52,94.52,0,0,1,747.22,313C747.22,365.15,704.77,407.42,652.41,407.42Z"/><path class="cls-2" d="M537,237.62l-.73,8.13,17.45,1.58Zm-7.33,81.13-3.44,38.06,32.68,3Zm44.45-59.58-38.75-3.5-5.43,60.08,36.65,36.65L575,259.67ZM491,282.86l29.62,3.07,2.9-27.92-29.62-3.07,3.81-36.65-39.62-4.11-3.81,36.64-10-1-2.9,27.92,10,1-2,19.2q-3.81,36.77,20.36,51.76A85.38,85.38,0,0,0,497,357.36L513,359l2.83-27.24q-21.75-3.34-24.65-8.47a21.76,21.76,0,0,1-3-13.3Zm-135.26,24h-.37q-.61.09-14.75,22.33v.37A93.42,93.42,0,0,0,364.72,341l11.55-26.59A77,77,0,0,1,355.71,306.82Zm74.81-18.7q-7.4-6.78-30.08-13c-10.64-2.34-15.94-4.58-15.94-6.76.71-3.47,3.13-5.2,7.17-5.2h2.48A62.79,62.79,0,0,1,410.6,266l13.63,3.8c8.7-15.29,13-23.24,13-23.92q-22.23-11.94-43.71-11.93h-4.69a89.79,89.79,0,0,0-10.46.78q-32.73,7.7-32.77,34.67a31.16,31.16,0,0,0,4.18,15.53q7,11.16,30.08,17.33,21,4,21,9.55c0,2.65-2.93,4-8.84,4h-2.52a64.8,64.8,0,0,1-11.59-1l-3.39,28.7a95.53,95.53,0,0,0,17.7,1.61h3a109.52,109.52,0,0,0,11.76-.78q32.77-6.88,32.76-34.67C439.76,300.67,436.67,293.49,430.52,288.12Zm-99.08-1-74.62,71.44a53.76,53.76,0,0,0,17.42.34,40.48,40.48,0,0,0,25-13.34l.41-.06,1,6.9,39.48-5.82Zm-.12-1-4.64-40.15-39.54,4.61,1.06,9.08c-8.33-5.42-16.67-7.67-25-6.69l-5.16.6q-22.3,2.61-34.21,24.3l42.36-8.29-43.78,11.12a52.93,52.93,0,0,0-3.4,26.73l.15,1.22q3.25,27.95,21.25,40.79l32.74-22.8a12.71,12.71,0,0,1-8.11-6.3c-1.71-3.23-2.94-7.84-3.63-13.81L261,303.3c-1.13-9.69.73-16.61,5.62-20.71a26.92,26.92,0,0,1,7-2l2.36-.27c8.54-.14,13,1.49,13.4,4.83,1.75,1.2,3.32,6.77,4.75,16.69a44.82,44.82,0,0,1,.18,10ZM199.54,263.64q-19-18.72-42.06-13.8l-5.09,1.09q-12.36,2.65-21.56,14.39l-9.85-46L82.07,227.7l16,74.74,39-7.65c-.07-2.5.18-4.14.76-4.92-.7-3.29,3-6.27,11.13-8.89l2.33-.49a26.54,26.54,0,0,1,7.26-.34q5.63,2.18,8.92,8.69l42-8.23A50.83,50.83,0,0,0,199.54,263.64Zm12.67,25.81-.3-1.19c-.4-1.58-.85-3.11-1.35-4.61L170,295.51c.42,1.21.8,2.5,1.15,3.87l.78,3.09c1.47,5.84,2,10.58,1.51,14.2-.94,6-4.91,9.86-11.86,11.62a20.86,20.86,0,0,0-4,.57q-13,.7-18-19.09-.62-2.74-1-5.08l-37.45,11,13.11,51.87L153,357.76l-1.7-6.76.39-.1a40.46,40.46,0,0,0,28.21,2.74,54.37,54.37,0,0,0,17.68-8.14Q221.15,325,212.21,289.45Zm442,38.25a4.15,4.15,0,0,1-.63-2.49q-9.64,5.13-17.5,3.47l-3.33-.71a21,21,0,0,1-4.8-1.75q-13.92-9.79-10.86-24.1l.75-3.49,1.34-4.51a37.29,37.29,0,0,1,4.64-6.08l-33-19.14a49.53,49.53,0,0,0-11.26,22.8l-.33,1.57q-2.55,12,1.09,25.56,12.24,32.84,45.34,39.88l.42.09a8,8,0,0,1,2.78-2.54c.95-.49,1.72-.49,1.42-1.86s-1.67-4.12-1.8-6a2.55,2.55,0,0,1,2.62-2.92,13.92,13.92,0,0,1,5.27,1.12c1.51.56,2.36,1,2.15.6a9.41,9.41,0,0,1-1.85-3,3.26,3.26,0,0,1,2-3.86c1.76-.69,4.68-.34,7.3,0s4.93.82,5.49.65-.64-.95-1.59-1.72a4.28,4.28,0,0,1-1.8-2.66,4.11,4.11,0,0,1,1.07-3.43,6.71,6.71,0,0,1,3.91-1.29c1.54-.17,3.17-.26,3.26-.94S655,329,654.22,327.7Zm-2.46-79.79-4.61-.68a59.2,59.2,0,0,0-54.65,19.89l35.08,16.3a19.87,19.87,0,0,1,17.08-5c8.54,1.26,15,5.92,19.28,13.91q28.16-13.43,29.56-14.75Q680.24,252.13,651.76,247.91Zm19.84,85.67a5.54,5.54,0,0,0-4.16-2.06,12.79,12.79,0,0,0-6.31,1c-1.55.79-1.93,2-.8,2.7s3.8.92,6,1.16,4,.49,5,0S672.29,334.61,671.6,333.58ZM675.11,346a10.63,10.63,0,0,0-3-2.23c-.8-.21-1.06.52-.86,1.61a6.5,6.5,0,0,0,1.69,3.35,2.77,2.77,0,0,0,2.64.69,1.36,1.36,0,0,0,1-1.42C676.48,347.44,676,346.88,675.11,346Zm-7.85,6.46a28.57,28.57,0,0,0-5.39-5.08c-1.7-1.06-2.83-.82-3.28.71a13.15,13.15,0,0,0,.44,6.5c.66,2.13,1.76,3.57,3.34,4.09a7.53,7.53,0,0,0,5-.45c1.31-.58,1.87-1.36,1.88-2.24S668.67,354.15,667.26,352.48ZM650.66,351a39.09,39.09,0,0,0-5.81-5.13c-1.65-1.1-1.92-.58-2,.58s0,2.94,1.27,4,3.6,1.29,5.2,1.5S651.77,352.34,650.66,351Zm3.69,9a4.66,4.66,0,0,0-2.1-1.42,2.19,2.19,0,0,0-1.72.15,1.56,1.56,0,0,0-.6,1.28,5.09,5.09,0,0,0,.23,2.21,2.23,2.23,0,0,0,1.54,1.33,4.7,4.7,0,0,0,2.49.07,1.44,1.44,0,0,0,1.16-1.37A3.72,3.72,0,0,0,654.35,360ZM537.72,217.89,537,236.94l20.13,9.56,19.34.67,1-27.88Z"/><path class="cls-3" d="M486.66,150.64l-45.39,16.77a46,46,0,0,1-2.58,5.43q-4.56,7.62-14.92,5.58l-5.39-1.47q-10.83-4.68-7.34-22.54l1-5.11a34.39,34.39,0,0,1,4.9-12.4q5.1-7.93,14.57-6.08l1.16.23q16.07,3.16,11.43,26.6a55.32,55.32,0,0,1-2.44,8.73l44.64-18.93a67.47,67.47,0,0,0-2.68-11.26q-13.68-30.27-44.39-36.34a65.77,65.77,0,0,0-31.06,1.2Q375.74,113,369.91,142.64l-.3,1.57A52.76,52.76,0,0,0,372.27,174q13.13,29.4,44.19,35.47a61.39,61.39,0,0,0,41.77-6q22.59-13.7,26.75-34.92l1.08-5.47A44.68,44.68,0,0,0,486.66,150.64ZM125.82,51.73A3.52,3.52,0,0,0,124,49.88a2.28,2.28,0,0,0-1.87-.16,3.24,3.24,0,0,0-1.54,1.76,8,8,0,0,0-1,3.82,2.55,2.55,0,0,0,1.95,2.2,3.94,3.94,0,0,0,3-.36A3.23,3.23,0,0,0,126,54.86,5.91,5.91,0,0,0,125.82,51.73Zm14.06,36.42a4,4,0,0,0-3.3-2.33c-1.27-.18-2.55,0-3,.8s-.13,2,.59,4.16S136,95.85,137,97.15a1.73,1.73,0,0,0,2.81.27c.68-.67,1-1.64,1-3.4A15.11,15.11,0,0,0,139.88,88.15Zm8-14.16c-.46-2.16-4.89-5.23-8.14-7.3s-5.33-3.16-7.18-2.75-3.48,2.3-4.47,4.37-1.35,4.33,1,6.09,7.26,3,11.51,3S148.35,76.16,147.9,74ZM163.7,63.2c-1-1.12-3.16-1.12-4.51-.54s-1.9,1.76-1.31,3.75a18.11,18.11,0,0,0,3.56,6.08c1.27,1.31,2.08,1.13,2.48.27a13.78,13.78,0,0,0,.5-4.28C164.51,66.59,164.69,64.33,163.7,63.2Zm-41.85,16c-1-1.74-3.85-4.19-5.71-5.93s-2.74-2.77-3.88-3.11-2.56,0-4.15,1-3.37,2.52-3.22,4.08,2.22,3.11,4.29,4.44a22.09,22.09,0,0,0,6.19,3,9,9,0,0,0,5.4-.11C122.14,82,122.88,81,121.85,79.23Zm429.68,104L546.74,208l36.94,7.16,7.74-39.92Zm67.13-13.59L608.9,220l36.74,7.12,12.7-65.48Zm39.68-25Q654,118.91,629.68,115l-2.75-.45a27.15,27.15,0,0,0-14.1,1.15c-8.38,3.45-14.32,7.34-17.84,11.62A46.51,46.51,0,0,0,585.75,114l-92.86,34.3-8.08,49.53L522.14,204l9-55a14.08,14.08,0,0,1,1-3.46q5.31-11.64,10.81-10.74l2.35.39a23,23,0,0,1,3.49,1c6.44,3.42,8.88,10,7.29,19.75l-4.36,26.68,40-11.21,2-12.16a13.26,13.26,0,0,1,1-3.46c3.53-7.76,7.15-11.33,10.8-10.74l2.39.39a24.14,24.14,0,0,1,3.46.94c5.9,3.15,8.44,8.92,7.59,17.39l39.48-11.08A73.71,73.71,0,0,0,658.34,144.68Zm-92-41.43-2.76-.39q-16.95-2.41-27.73,12.57l1.79-12.62L500.2,97.49l-6.66,46.88,83.88-37.65A34.52,34.52,0,0,0,566.35,103.25ZM238.14,138.5q-6.18-15-23-19.08L215,119q13.35-11.41,10.62-29.06-2-12.86-10.45-20.53Q204.65,59.85,184.06,61a8.12,8.12,0,0,1,0,3.73c-.73,2.49-3.57,3.61-5.28,4.12s-2.32.43-2.4.69.34.86.64,1.93a10,10,0,0,1,.26,4,4,4,0,0,1-1.93,3,7.09,7.09,0,0,1-4.42.38c-1.68-.3-3.4-1-4.08-.94s-.34.81-.13,1.67a5.65,5.65,0,0,1,0,2.92,5,5,0,0,1-2.19,3.09,7.74,7.74,0,0,1-4.63.56c-1.72-.22-3.44-.73-4.21-.56s-.6,1-.51,2.36c0,.48,0,1,0,1.61l7.13,4.21,9.38-1.46a38,38,0,0,1,7.16-.63c6.72-.15,10.53,2.9,11.51,9.21.57,3.69.39,6.73-.56,9.11ZM242,151l-.5-2.33c-.13-.6-.27-1.19-.41-1.78L181.52,119a16.2,16.2,0,0,1-1.7.45L154,125l-4.47-20.92-5.13-2.4a7.7,7.7,0,0,1,.59,2.75,9.06,9.06,0,0,1-.75,3.9c-.51,1-1.29,1.12-2.66,1a21.24,21.24,0,0,1-4.85-1.12c-1.5-.55-2.53-1.24-3-1.2s-.39.82-.26,1.76a14.7,14.7,0,0,1,.21,3.18,4.27,4.27,0,0,1-1.54,3.17,7.41,7.41,0,0,1-4.89,1.63c-1.89-.08-3.78-1-4.76-1.07s-1.08.82-1.38,1.63a3.6,3.6,0,0,1-2.49,2.23,17.36,17.36,0,0,1-5,1l11.48,53.79,107,12.71Q246.55,172.19,242,151Zm-37.87,10.51c-1,5.59-4.4,9-10.22,10.24l-28.65,6.12-5.47-25.63,26.49-5.65q15-3.21,17.45,8.3A26.31,26.31,0,0,1,204.15,161.53ZM128,192.62l7.18,27.51,74.55-19.47a45.48,45.48,0,0,0,13.18-5.9c1-.73,1.94-1.46,2.85-2.21Zm238.63-45.73-1-5.49q-2.13-12-12-24.18Q330,93.93,299.17,99.36a65.77,65.77,0,0,0-28.53,12.34q-17,15-20.6,33l44.43,23a42.09,42.09,0,0,1-1.89-7.23l-.9-5.13a34.25,34.25,0,0,1,.09-13.33c1.25-6.16,5.06-9.81,11.39-10.93l1.17-.2q16.11-2.86,20.26,20.68a51.21,51.21,0,0,1,.44,16.11q-1.42,8.2-10.64,10.34l33.69,17.43a63.65,63.65,0,0,0,6.22-6.28Q370.42,168.2,366.64,146.89Zm-58.51,33.62-1.37.21a12.7,12.7,0,0,1-10.48-5.07l-49.16-20.14A55.17,55.17,0,0,0,248.54,169l.35,1.55a52.53,52.53,0,0,0,12.56,24.06l49.2,3.43-45.44.19q23.28,19.71,53,12.91a61.76,61.76,0,0,0,28.72-14.8Z"/><path class="cls-1" d="M250.47,414.76a18.63,18.63,0,0,0-13.06-5.43,25.88,25.88,0,0,0-5.3.82q-13.26,4.89-13.26,18.91v28.56q.8,3.49,3.58,3.5c2.34-.51,3.51-1.58,3.51-3.23V442.57a15.58,15.58,0,0,0,10.86,4h1a18.63,18.63,0,0,0,8.35-2.18q9.86-6,9.86-16.41A18.63,18.63,0,0,0,250.47,414.76Zm-1.65,13.44a12,12,0,0,1-.79,4.19q-3.52,6.9-10.2,6.91h-.76a10.15,10.15,0,0,1-4.77-1.15q-6.21-3.55-6.22-10v-.65a11,11,0,0,1,.59-3.32c2.25-5.11,5.81-7.68,10.64-7.68a11.53,11.53,0,0,1,6.6,2q4.91,3.69,4.91,9Z"/><path class="cls-1" d="M292.92,419.64q-6.2-10.38-16.81-10.38a20.09,20.09,0,0,0-8.53,2q-10.23,6.13-10.23,16.58a20.52,20.52,0,0,0,2.31,9.3q6.36,9.55,15.88,9.56h1c4.6,0,8.31-1.33,11.12-4V444q1.16,2.78,3.51,2.78h.24c2.27-.39,3.4-1.52,3.4-3.36v-15A21.24,21.24,0,0,0,292.92,419.64Zm-5.25,8.76a11.88,11.88,0,0,1-1.38,5.28q-3.82,5.89-9.71,5.9h-1a11.34,11.34,0,0,1-4-.83q-7.11-3.56-7.11-10.64v-.37a13.65,13.65,0,0,1,.7-3.86q3.61-7.47,10.77-7.47h.14a11.72,11.72,0,0,1,4.83,1q6.73,3.62,6.73,10.43Z"/><path class="cls-1" d="M313.29,443v.28c-.39,2.3-1.57,3.46-3.53,3.46h-5c-1.91,0-3.09-1.19-3.53-3.53V399.1c.27-2.54,1.36-3.8,3.25-3.8h.62q3.29.69,3.28,3.12v41.16H310C311.72,439.58,312.81,440.71,313.29,443Z"/><path class="cls-1" d="M322.56,409c-2.21,0-3.46,1.31-3.73,4v30.23c.44,2.34,1.61,3.53,3.5,3.53h.2c2.3-.39,3.46-1.53,3.46-3.39V412.28C326,410.69,324.84,409.6,322.56,409Zm0-8.91q-3,0-3.76,3.63.82,3.63,3.49,3.63c2.47-.34,3.7-1.43,3.7-3.25v-.77C326,401.78,324.84,400.7,322.56,400.12Z"/><path class="cls-1" d="M369.38,427.08v16.43q0,2.57-3.4,3.23h-.35q-3.41-.63-3.4-3.5V428.78q0-9-7.66-11.81a13.52,13.52,0,0,0-3.31-.49h-.38c-4.26,0-7.58,2.24-9.93,6.69-.61,1.31-.9,3.53-.9,6.64v13.57c0,1.84-1.13,3-3.4,3.36h-.25c-1.9,0-3.07-1.19-3.51-3.53v-30c.29-2.63,1.54-3.94,3.79-3.94q3.38.87,3.37,3.24V413q4.14-3.77,11.22-3.76,7.77,0,13.75,6.43A17.8,17.8,0,0,1,369.38,427.08Z"/><path class="cls-1" d="M404.86,416.25q-6.09-6.93-14.44-6.92a18.85,18.85,0,0,0-10.62,3.42q-8,6.12-8,15.21a19.71,19.71,0,0,0,4,11.58q6.46,7.05,14,7h1q6.93,0,11.2-3.94V446l-.18,1.38a12.2,12.2,0,0,1-11.35,6.78,13,13,0,0,1-10.54-5.29c-.92-2.5-2.21-3.75-3.85-3.75h-.49c-2.16.49-3.24,1.57-3.24,3.26v.38a7.6,7.6,0,0,0,1.31,3.15q6.64,9.06,16.81,9a20.53,20.53,0,0,0,11.39-3.57q7.08-5.46,7.08-10.33V431.55l.14-4.34C409.09,423.75,407.69,420.08,404.86,416.25ZM402,428.48a15.81,15.81,0,0,1-.56,3.5q-3.62,7.52-10.65,7.53H390a13,13,0,0,1-3.62-.59q-7.59-3.53-7.59-10.71v-.63a11.75,11.75,0,0,1,.7-3.73c2.39-5,6-7.44,10.64-7.44h.49a17.67,17.67,0,0,1,3.67.56q7.68,3.55,7.67,10.72Z"/><path class="cls-1" d="M464.37,419.64q-6.21-10.38-16.82-10.38a20,20,0,0,0-8.52,2q-10.24,6.13-10.24,16.58a20.65,20.65,0,0,0,2.31,9.3q6.36,9.55,15.88,9.56h1c4.6,0,8.31-1.33,11.12-4V444q1.16,2.78,3.51,2.78h.25c2.26-.39,3.4-1.52,3.4-3.36v-15A21.4,21.4,0,0,0,464.37,419.64Zm-5.26,8.76a11.88,11.88,0,0,1-1.38,5.28q-3.82,5.89-9.71,5.9h-1a11.34,11.34,0,0,1-4-.83c-4.73-2.37-7.11-5.91-7.11-10.64v-.37a13.65,13.65,0,0,1,.7-3.86q3.61-7.47,10.77-7.47h.14a11.72,11.72,0,0,1,4.83,1q6.73,3.62,6.73,10.43Z"/><path class="cls-1" d="M502.06,434.31v.11q0,5.91-8.37,10.69a18.62,18.62,0,0,1-7.66,1.63q-8.29,0-14-7.79a3.52,3.52,0,0,1-.73-2v-.77q0-2.8,3.8-3.21,1.85,0,4.33,3.56a10.13,10.13,0,0,0,7.12,2.84q4.86,0,8-4.52l.15-.49c0-.46-.5-.74-1.43-.84q-17.5-3.9-18.68-5a8.08,8.08,0,0,1-3.56-6.67c0-3.6,2.52-7,7.54-10.24a17.57,17.57,0,0,1,8.2-2.17q9.48,0,15,8.75l.15,1.27v.22q0,2.94-3.53,3.46c-1.57,0-3-1.11-4.36-3.32a10,10,0,0,0-7.23-3.08,9.28,9.28,0,0,0-8.33,5l-.08.34c0,.46,1,.78,3,.94q14.88,3.6,16.43,4.19C500.63,429.08,502.06,431.46,502.06,434.31Z"/><path class="cls-1" d="M511.13,409c-2.21,0-3.46,1.31-3.73,4v30.23c.43,2.34,1.6,3.53,3.49,3.53h.2c2.3-.39,3.46-1.53,3.46-3.39V412.28C514.55,410.69,513.41,409.6,511.13,409Zm0-8.91q-3,0-3.77,3.63.82,3.63,3.49,3.63c2.47-.34,3.7-1.43,3.7-3.25v-.77Q514.55,401,511.13,400.12Z"/><path class="cls-1" d="M553.14,441.72l.21,1.14v.31q-.61,3.42-3.53,3.42h-.25c-1.38,0-3.18-1.61-5.42-4.84l-11.21-14-4.33,2.78v12.8c0,1.86-1.15,3-3.47,3.39h-.21c-1.78,0-3-1.09-3.54-3.25v-45q.72-3.42,3.27-3.42h.62q3.33.72,3.33,3.15V422q16.92-11.2,20.28-13.1h.93c2,0,3.17,1.22,3.53,3.69q0,2.29-4.71,4.78-7.71,5.22-9.54,6.53Z"/><path class="cls-1" d="M708.73,212.55a137.55,137.55,0,0,0,16.9-66.21c0-75.74-61.15-137.52-137-137.52a136.23,136.23,0,0,0-86,30.45A121.5,121.5,0,0,0,374.5,45a121.46,121.46,0,0,0-129-8.92A126,126,0,0,0,157.1,0C88.11,0,31.42,55.41,31.42,124.65A123.61,123.61,0,0,0,50.71,191,130.06,130.06,0,0,0,0,293.82C0,362.37,53.14,417.14,119.4,424.2l6,32.43c4.27,22.87,19.19,44.53,44.6,44.53H598c25.34,0,39.72-21.49,44.5-44L648.71,428c1.23,0,2.47.06,3.7.06,63.59,0,115.44-51.36,115.44-115A115.08,115.08,0,0,0,708.73,212.55ZM652.41,407.42a95.41,95.41,0,0,1-20-2.11l-10.08,47.54c-3.14,14.79-10.94,27.67-24.31,27.67H170c-13.37,0-21.54-12.78-24.31-27.67l-9-48.55-2.76,0c-62.57,0-113.29-49.48-113.29-110.51,0-42.32,24.39-79.08,60.2-97.64A103.13,103.13,0,0,1,52,124.65c0-57.45,47-104,105-104a105.21,105.21,0,0,1,84.72,42.53A98.55,98.55,0,0,1,303,42.3c28.37,0,53.8,11.56,71,29.85,17.17-17.09,41.74-27.79,69-27.79a98.48,98.48,0,0,1,61.51,21.09,115.78,115.78,0,0,1,84-36C652.89,29.45,705,81.78,705,146.34a116.72,116.72,0,0,1-27.59,75.57A94.52,94.52,0,0,1,747.22,313C747.22,365.15,704.77,407.42,652.41,407.42Z"/><path class="cls-4" d="M677.4,221.91A116.72,116.72,0,0,0,705,146.34c0-64.56-52.1-116.89-116.38-116.89a115.78,115.78,0,0,0-84,36A98.48,98.48,0,0,0,443.1,44.36c-27.28,0-51.85,10.7-69,27.79C356.84,53.86,331.41,42.3,303,42.3a98.55,98.55,0,0,0-61.22,20.86A105.21,105.21,0,0,0,157.1,20.63c-58,0-105,46.57-105,104a103.13,103.13,0,0,0,28.78,71.53C45,214.74,20.63,251.5,20.63,293.82c0,61,50.72,110.51,113.29,110.51l2.76,0,9,48.55c2.77,14.89,10.94,27.67,24.31,27.67H598c13.37,0,21.17-12.88,24.31-27.67l10.08-47.54a95.41,95.41,0,0,0,20,2.11c52.36,0,94.81-42.27,94.81-94.42A94.52,94.52,0,0,0,677.4,221.91ZM500.2,97.49l37.45,5.32-1.79,12.62q10.77-15,27.73-12.57l2.76.39a34.52,34.52,0,0,1,11.07,3.47l-83.88,37.65ZM585.75,114A46.51,46.51,0,0,1,595,127.28c3.52-4.28,9.46-8.17,17.84-11.62a27.15,27.15,0,0,1,14.1-1.15l2.75.45q24.25,4,28.66,29.72a73.71,73.71,0,0,1,0,7.88l-39.48,11.08c.85-8.47-1.69-14.24-7.59-17.39a24.14,24.14,0,0,0-3.46-.94l-2.39-.39c-3.65-.59-7.27,3-10.8,10.74a13.26,13.26,0,0,0-1,3.46l-2,12.16-40,11.21L556,155.81c1.59-9.77-.85-16.33-7.29-19.75a23,23,0,0,0-3.49-1l-2.35-.39q-5.49-.89-10.81,10.74a14.08,14.08,0,0,0-1,3.46l-9,55-37.33-6.09,8.08-49.53Zm72.59,47.62-12.7,65.48L608.9,220l9.76-50.33Zm-66.92,13.55-7.74,39.92L546.74,208l4.79-24.69ZM537,237.62l16.72,9.71-17.45-1.58ZM369.61,144.21l.3-1.57Q375.74,113,408.17,101a65.77,65.77,0,0,1,31.06-1.2q30.66,6,44.39,36.34a67.47,67.47,0,0,1,2.68,11.26l-44.64,18.93a55.32,55.32,0,0,0,2.44-8.73q4.62-23.46-11.43-26.6l-1.16-.23Q422,129,416.94,136.9a34.39,34.39,0,0,0-4.9,12.4l-1,5.11q-3.51,17.85,7.34,22.54l5.39,1.47q10.35,2,14.92-5.58a46,46,0,0,0,2.58-5.43l45.39-16.77a44.68,44.68,0,0,1-.6,12.43L485,168.54q-4.17,21.21-26.75,34.92a61.39,61.39,0,0,1-41.77,6q-31.07-6.12-44.19-35.47A52.76,52.76,0,0,1,369.61,144.21ZM378,314.74a64.8,64.8,0,0,0,11.59,1h2.52c5.91,0,8.84-1.33,8.84-4q0-5.55-21-9.55-23.1-6.16-30.08-17.33a31.16,31.16,0,0,1-4.18-15.53q0-27,32.77-34.67a89.79,89.79,0,0,1,10.46-.78h4.69q21.46,0,43.71,11.93c0,.68-4.35,8.63-13,23.92L410.6,266a62.79,62.79,0,0,0-16.45-2.79h-2.48c-4,0-6.46,1.73-7.17,5.2,0,2.18,5.3,4.42,15.94,6.76q22.68,6.18,30.08,13c6.15,5.37,9.24,12.55,9.24,21.48q0,27.79-32.76,34.67a109.52,109.52,0,0,1-11.76.78h-3a95.53,95.53,0,0,1-17.7-1.61ZM364.72,341a93.42,93.42,0,0,1-24.13-11.49v-.37q14.12-22.23,14.75-22.33h.37a77,77,0,0,0,20.56,7.6ZM270.64,111.7a65.77,65.77,0,0,1,28.53-12.34q30.78-5.45,54.52,17.86,9.87,12.14,12,24.18l1,5.49q3.77,21.29-12.34,42.22a63.65,63.65,0,0,1-6.22,6.28L314.39,178q9.22-2.13,10.64-10.34a51.21,51.21,0,0,0-.44-16.11q-4.17-23.55-20.26-20.68l-1.17.2c-6.33,1.12-10.14,4.77-11.39,10.93a34.25,34.25,0,0,0-.09,13.33l.9,5.13a42.09,42.09,0,0,0,1.89,7.23l-44.43-23Q253.63,126.67,270.64,111.7Zm25.64,64a12.7,12.7,0,0,0,10.48,5.07l1.37-.21,38.78,15.88a61.76,61.76,0,0,1-28.72,14.8q-29.71,6.76-53-12.91l45.44-.19-49.2-3.43a52.53,52.53,0,0,1-12.56-24.06l-.35-1.55a55.17,55.17,0,0,1-1.42-13.54Zm-137.09-113c1.35-.58,3.52-.58,4.51.54s.81,3.39.72,5.28a13.78,13.78,0,0,1-.5,4.28c-.4.86-1.21,1-2.48-.27a18.11,18.11,0,0,1-3.56-6.08C157.29,64.42,157.84,63.25,159.19,62.66Zm-3.45,22.93c.77-.17,2.49.34,4.21.56a7.74,7.74,0,0,0,4.63-.56,5,5,0,0,0,2.19-3.09,5.65,5.65,0,0,0,0-2.92c-.21-.86-.56-1.63.13-1.67s2.4.64,4.08.94a7.09,7.09,0,0,0,4.42-.38,4,4,0,0,0,1.93-3,10,10,0,0,0-.26-4c-.3-1.07-.73-1.67-.64-1.93s.68-.17,2.4-.69,4.55-1.63,5.28-4.12a8.12,8.12,0,0,0,0-3.73q20.59-1.16,31.15,8.42,8.41,7.66,10.45,20.53Q228.39,107.57,215,119l.07.41q16.84,4.06,23,19.08L189.89,110c.95-2.38,1.13-5.42.56-9.11-1-6.31-4.79-9.36-11.51-9.21a38,38,0,0,0-7.16.63l-9.38,1.46-7.13-4.21c0-.59,0-1.13,0-1.61C155.14,86.62,155,85.76,155.74,85.59ZM128.11,68.31c1-2.07,2.62-4,4.47-4.37s3.92.67,7.18,2.75,7.68,5.14,8.14,7.3-3.09,3.43-7.33,3.43-9.21-1.26-11.51-3S127.12,70.39,128.11,68.31ZM140.86,94c0,1.76-.32,2.73-1,3.4a1.73,1.73,0,0,1-2.81-.27c-1.09-1.3-2.19-4.25-2.91-6.37s-1.06-3.41-.59-4.16,1.76-1,3-.8a4,4,0,0,1,3.3,2.33A15.11,15.11,0,0,1,140.86,94Zm-8.72,21.09a4.27,4.27,0,0,0,1.54-3.17,14.7,14.7,0,0,0-.21-3.18c-.13-.94-.21-1.71.26-1.76s1.5.65,3,1.2a21.24,21.24,0,0,0,4.85,1.12c1.37.13,2.15,0,2.66-1a9.06,9.06,0,0,0,.75-3.9,7.7,7.7,0,0,0-.59-2.75l5.13,2.4L154,125l25.82-5.51a16.2,16.2,0,0,0,1.7-.45l59.59,27.87c.14.59.28,1.18.41,1.78L242,151q4.51,21.18-9.9,36l-107-12.71-11.48-53.79a17.36,17.36,0,0,0,5-1,3.6,3.6,0,0,0,2.49-2.23c.3-.81.39-1.67,1.38-1.63s2.87,1,4.76,1.07A7.41,7.41,0,0,0,132.14,115.11Zm93.63,77.44c-.91.75-1.86,1.48-2.85,2.21a45.48,45.48,0,0,1-13.18,5.9l-74.55,19.47L128,192.62ZM120.62,51.48a3.24,3.24,0,0,1,1.54-1.76,2.28,2.28,0,0,1,1.87.16,3.52,3.52,0,0,1,1.79,1.85,5.91,5.91,0,0,1,.13,3.13,3.23,3.23,0,0,1-1.38,2.28,3.94,3.94,0,0,1-3,.36,2.55,2.55,0,0,1-1.95-2.2A8,8,0,0,1,120.62,51.48ZM108.11,71.19c1.59-1,3-1.33,4.15-1s2,1.37,3.88,3.11,4.67,4.19,5.71,5.93.29,2.78-1.08,3.33a9,9,0,0,1-5.4.11,22.09,22.09,0,0,1-6.19-3c-2.07-1.33-4.14-2.89-4.29-4.44S106.52,72.16,108.11,71.19Zm-26,156.51L121,219.36l9.85,46q9.22-11.73,21.56-14.39l5.09-1.09q23.09-4.93,42.06,13.8a50.83,50.83,0,0,1,10,17l-42,8.23q-3.3-6.51-8.92-8.69a26.54,26.54,0,0,0-7.26.34l-2.33.49c-8.13,2.62-11.83,5.6-11.13,8.89-.58.78-.83,2.42-.76,4.92l-39,7.65ZM197.6,345.5a54.37,54.37,0,0,1-17.68,8.14,40.46,40.46,0,0,1-28.21-2.74l-.39.1,1.7,6.76-38.72,9.76-13.11-51.87,37.45-11q.43,2.34,1,5.08,5,19.82,18,19.09a20.86,20.86,0,0,1,4-.57c7-1.76,10.92-5.63,11.86-11.62.45-3.62,0-8.36-1.51-14.2l-.78-3.09c-.35-1.37-.73-2.66-1.15-3.87l40.53-11.86c.5,1.5,1,3,1.35,4.61l.3,1.19Q221.18,325,197.6,345.5Zm24.77-64.85,43.78-11.12-42.36,8.29q11.91-21.67,34.21-24.3l5.16-.6c8.37-1,16.71,1.27,25,6.69l-1.06-9.08,39.54-4.61,4.64,40.15-37,25.77a44.82,44.82,0,0,0-.18-10c-1.43-9.92-3-15.49-4.75-16.69-.39-3.34-4.86-5-13.4-4.83l-2.36.27a26.92,26.92,0,0,0-7,2c-4.89,4.1-6.75,11-5.62,20.71l.37,3.18c.69,6,1.92,10.58,3.63,13.81a12.71,12.71,0,0,0,8.11,6.3l-32.74,22.8q-18-12.84-21.25-40.79l-.15-1.22A52.93,52.93,0,0,1,222.37,280.65Zm23.82,163.69a18.63,18.63,0,0,1-8.35,2.18h-1a15.58,15.58,0,0,1-10.86-4v15.32c0,1.65-1.17,2.72-3.51,3.23q-2.79,0-3.58-3.5V429.06q0-14,13.26-18.91a25.88,25.88,0,0,1,5.3-.82A18.8,18.8,0,0,1,256,427.93Q256,438.37,246.19,444.34Zm48.63-1c0,1.84-1.13,3-3.4,3.36h-.24q-2.36,0-3.51-2.78v-1.18c-2.81,2.63-6.52,4-11.12,4h-1q-9.52,0-15.88-9.56a20.52,20.52,0,0,1-2.31-9.3q0-10.45,10.23-16.58a20.09,20.09,0,0,1,8.53-2q10.61,0,16.81,10.38a21.24,21.24,0,0,1,1.9,8.76Zm4.83-97.89-.41.06a40.48,40.48,0,0,1-25,13.34,53.76,53.76,0,0,1-17.42-.34l74.62-71.44,8.7,59.46-39.48,5.82Zm13.64,97.79c-.39,2.3-1.57,3.46-3.53,3.46h-5c-1.91,0-3.09-1.19-3.53-3.53V399.1c.27-2.54,1.36-3.8,3.25-3.8h.62q3.29.69,3.28,3.12v41.16H310c1.67,0,2.76,1.13,3.24,3.42Zm12.7.07c0,1.86-1.16,3-3.46,3.39h-.2c-1.89,0-3.06-1.19-3.5-3.53V413c.27-2.64,1.52-4,3.73-4,2.28.57,3.43,1.66,3.43,3.25Zm0-39.22c0,1.82-1.23,2.91-3.7,3.25q-2.67,0-3.49-3.63.72-3.63,3.76-3.63c2.28.58,3.43,1.66,3.43,3.24Zm43.39,39.38q0,2.57-3.4,3.23h-.35q-3.41-.63-3.4-3.5V428.78q0-9-7.66-11.81a13.52,13.52,0,0,0-3.31-.49h-.38c-4.26,0-7.58,2.24-9.93,6.69-.61,1.31-.9,3.53-.9,6.64v13.57c0,1.84-1.13,3-3.4,3.36h-.25c-1.9,0-3.07-1.19-3.51-3.53v-30c.29-2.63,1.54-3.94,3.79-3.94q3.38.87,3.37,3.24V413q4.14-3.77,11.22-3.76,7.77,0,13.75,6.43a17.8,17.8,0,0,1,4.37,11.39Zm39.57-12v15.53q0,4.88-7.08,10.33A20.53,20.53,0,0,1,390.48,461q-10.17,0-16.81-9a7.6,7.6,0,0,1-1.31-3.15v-.38c0-1.69,1.08-2.77,3.24-3.26h.49c1.64,0,2.93,1.25,3.85,3.75a13,13,0,0,0,10.54,5.29,12.2,12.2,0,0,0,11.35-6.78L402,446v-3.37q-4.28,3.95-11.2,3.94h-1q-7.55,0-14-7a19.71,19.71,0,0,1-4-11.58q0-9.09,8-15.21a18.85,18.85,0,0,1,10.62-3.42q8.36,0,14.44,6.92c2.83,3.83,4.23,7.5,4.23,11Zm57.32,11.83c0,1.84-1.14,3-3.4,3.36h-.25q-2.36,0-3.51-2.78v-1.18c-2.81,2.63-6.52,4-11.12,4h-1q-9.52,0-15.88-9.56a20.65,20.65,0,0,1-2.31-9.3q0-10.45,10.24-16.58a20,20,0,0,1,8.52-2q10.61,0,16.82,10.38a21.4,21.4,0,0,1,1.9,8.76Zm35.79-9q0,5.91-8.37,10.69a18.62,18.62,0,0,1-7.66,1.63q-8.29,0-14-7.79a3.52,3.52,0,0,1-.73-2v-.77q0-2.8,3.8-3.21,1.85,0,4.33,3.56a10.13,10.13,0,0,0,7.12,2.84q4.86,0,8-4.52l.15-.49c0-.46-.5-.74-1.43-.84q-17.5-3.9-18.68-5a8.08,8.08,0,0,1-3.56-6.67c0-3.6,2.52-7,7.54-10.24a17.57,17.57,0,0,1,8.2-2.17q9.48,0,15,8.75l.15,1.27v.22q0,2.94-3.53,3.46c-1.57,0-3-1.11-4.36-3.32a10,10,0,0,0-7.23-3.08,9.28,9.28,0,0,0-8.33,5l-.08.34c0,.46,1,.78,3,.94q14.88,3.6,16.43,4.19c2.83,1.86,4.26,4.24,4.26,7.09Zm12.49,8.93c0,1.86-1.16,3-3.46,3.39h-.2c-1.89,0-3.06-1.19-3.49-3.53V413c.27-2.64,1.52-4,3.73-4,2.28.57,3.42,1.66,3.42,3.25Zm0-39.22c0,1.82-1.23,2.91-3.7,3.25q-2.67,0-3.49-3.63.72-3.63,3.77-3.63,3.42.87,3.42,3.24Zm-23.37-80.82q2.91,5.11,24.65,8.47L513,359l-16-1.66a85.38,85.38,0,0,1-27.26-7.65q-24.18-15-20.36-51.76l2-19.2-10-1,2.9-27.92,10,1,3.81-36.64,39.62,4.11-3.81,36.65L523.49,258l-2.9,27.92L491,282.86,488.16,310A21.76,21.76,0,0,0,491.18,323.31Zm62,118.41.21,1.14v.31q-.61,3.42-3.53,3.42h-.25c-1.38,0-3.18-1.61-5.42-4.84l-11.21-14-4.33,2.78v12.8c0,1.86-1.15,3-3.47,3.39h-.21c-1.78,0-3-1.09-3.54-3.25v-45q.72-3.42,3.27-3.42h.62q3.33.72,3.33,3.15V422q16.92-11.2,20.28-13.1h.93c2,0,3.17,1.22,3.53,3.69q0,2.29-4.71,4.78-7.71,5.22-9.54,6.53Zm-26.92-84.91,3.44-38.06,29.24,41Zm40.36-4.41-36.65-36.65,5.43-60.08,38.75,3.5.85.5Zm9.94-105.23-19.34-.67L537,236.94l.67-19.05,39.78,1.4Zm67.6,103.3c-1.24-1-1.34-2.81-1.27-4s.35-1.68,2-.58a39.09,39.09,0,0,1,5.81,5.13c1.11,1.29.27,1.13-1.34.92S645.35,351.5,644.12,350.47Zm10.07,13.15a4.7,4.7,0,0,1-2.49-.07,2.23,2.23,0,0,1-1.54-1.33,5.09,5.09,0,0,1-.23-2.21,1.56,1.56,0,0,1,.6-1.28,2.19,2.19,0,0,1,1.72-.15,4.66,4.66,0,0,1,2.1,1.42,3.72,3.72,0,0,1,1,2.25A1.44,1.44,0,0,1,654.19,363.62Zm-1.08-31.71a6.71,6.71,0,0,0-3.91,1.29,4.11,4.11,0,0,0-1.07,3.43,4.28,4.28,0,0,0,1.8,2.66c1,.77,2.15,1.55,1.59,1.72s-2.88-.26-5.49-.65-5.54-.73-7.3,0a3.26,3.26,0,0,0-2,3.86,9.41,9.41,0,0,0,1.85,3c.21.39-.64,0-2.15-.6a13.92,13.92,0,0,0-5.27-1.12,2.55,2.55,0,0,0-2.62,2.92c.13,1.85,1.5,4.59,1.8,6s-.47,1.37-1.42,1.86a8,8,0,0,0-2.78,2.54l-.42-.09q-33.12-7.05-45.34-39.88-3.61-13.59-1.09-25.56l.33-1.57a49.53,49.53,0,0,1,11.26-22.8l33,19.14a37.29,37.29,0,0,0-4.64,6.08l-1.34,4.51-.75,3.49q-3,14.31,10.86,24.1a21,21,0,0,0,4.8,1.75l3.33.71q7.85,1.66,17.5-3.47a4.15,4.15,0,0,0,.63,2.49c.78,1.29,2.23,2.58,2.15,3.27S654.65,331.74,653.11,331.91Zm14.22,26.34a7.53,7.53,0,0,1-5,.45c-1.58-.52-2.68-2-3.34-4.09a13.15,13.15,0,0,1-.44-6.5c.45-1.53,1.58-1.77,3.28-.71a28.57,28.57,0,0,1,5.39,5.08c1.41,1.67,2,2.64,2,3.53S668.64,357.67,667.33,358.25Zm-1-21.9c-2.23-.24-4.89-.45-6-1.16s-.75-1.91.8-2.7a12.79,12.79,0,0,1,6.31-1,5.54,5.54,0,0,1,4.16,2.06c.69,1,.64,2.28-.28,2.77S668.59,336.59,666.36,336.35Zm9.2,13.09a2.77,2.77,0,0,1-2.64-.69,6.5,6.5,0,0,1-1.69-3.35c-.2-1.09.06-1.82.86-1.61a10.63,10.63,0,0,1,3,2.23c.9.86,1.37,1.42,1.44,2A1.36,1.36,0,0,1,675.56,349.44Zm-11.62-57.16c-4.32-8-10.74-12.65-19.28-13.91a19.87,19.87,0,0,0-17.08,5l-35.08-16.3a59.2,59.2,0,0,1,54.65-19.89l4.61.68q28.5,4.2,41.74,29.62Q692.12,278.83,663.94,292.28Z"/><path class="cls-4" d="M459.11,427.88v.52a11.88,11.88,0,0,1-1.38,5.28q-3.82,5.89-9.71,5.9h-1a11.34,11.34,0,0,1-4-.83c-4.73-2.37-7.11-5.91-7.11-10.64v-.37a13.65,13.65,0,0,1,.7-3.86q3.61-7.47,10.77-7.47h.14a11.72,11.72,0,0,1,4.83,1Q459.11,421.07,459.11,427.88Z"/><path class="cls-4" d="M402,427.69v.79a15.81,15.81,0,0,1-.56,3.5q-3.62,7.52-10.65,7.53H390a13,13,0,0,1-3.62-.59q-7.59-3.53-7.59-10.71v-.63a11.75,11.75,0,0,1,.7-3.73c2.39-5,6-7.44,10.64-7.44h.49a17.67,17.67,0,0,1,3.67.56Q402,420.52,402,427.69Z"/><path class="cls-4" d="M287.67,427.88v.52a11.88,11.88,0,0,1-1.38,5.28q-3.82,5.89-9.71,5.9h-1a11.34,11.34,0,0,1-4-.83q-7.11-3.56-7.11-10.64v-.37a13.65,13.65,0,0,1,.7-3.86q3.61-7.47,10.77-7.47h.14a11.72,11.72,0,0,1,4.83,1Q287.67,421.07,287.67,427.88Z"/><path class="cls-4" d="M248.82,427.55v.65a12,12,0,0,1-.79,4.19q-3.52,6.9-10.2,6.91h-.76a10.15,10.15,0,0,1-4.77-1.15q-6.21-3.55-6.22-10v-.65a11,11,0,0,1,.59-3.32c2.25-5.11,5.81-7.68,10.64-7.68a11.53,11.53,0,0,1,6.6,2Q248.82,422.22,248.82,427.55Z"/><path class="cls-4" d="M204.15,161.53c-1,5.59-4.4,9-10.22,10.24l-28.65,6.12-5.47-25.63,26.49-5.65q15-3.21,17.45,8.3A26.31,26.31,0,0,1,204.15,161.53Z"/></g></g></svg>