<svg xmlns="http://www.w3.org/2000/svg" viewBox="0 0 377.89 246.64"><defs><style>.cls-1{fill:#e53473;}.cls-1,.cls-2,.cls-3,.cls-4{fill-rule:evenodd;}.cls-2{fill:#fff;}.cls-3{fill:#f8bf07;}.cls-4{fill:#76b828;}</style></defs><title>Asset 1</title><g id="Layer_2" data-name="Layer 2"><g id="Layer_1-2" data-name="Layer 1"><path class="cls-1" d="M348.8,104.6A67.5,67.5,0,0,0,247.37,19.33a59.8,59.8,0,0,0-63.06,2.82,59.78,59.78,0,0,0-63.47-4.39A62,62,0,0,0,77.32,0c-34,0-61.85,27.27-61.85,61.35A60.83,60.83,0,0,0,25,94,64,64,0,0,0,0,144.6c0,33.74,26.15,60.69,58.76,64.17l3,16c2.1,11.26,9.44,21.92,21.95,21.92H294.32c12.47,0,19.55-10.58,21.9-21.67l3-14.34,1.82,0A56.59,56.59,0,0,0,348.8,104.6Zm-27.72,95.9a47,47,0,0,1-9.84-1l-5,23.4c-1.55,7.28-5.38,13.62-12,13.62H83.68c-6.58,0-10.6-6.29-12-13.62L67.27,199H65.91c-30.79,0-55.75-24.35-55.75-54.39A54.21,54.21,0,0,1,39.78,96.55a50.75,50.75,0,0,1-14.16-35.2c0-28.27,23.15-51.19,51.7-51.19A51.78,51.78,0,0,1,119,31.08a48.5,48.5,0,0,1,30.13-10.27,47.92,47.92,0,0,1,35,14.69,49.16,49.16,0,0,1,64.24-3.3,57.39,57.39,0,0,1,85,77,46.45,46.45,0,0,1-12.3,91.3Z"/><path class="cls-2" d="M333.38,109.21a57.38,57.38,0,0,0-85-77,49.16,49.16,0,0,0-64.24,3.3,47.92,47.92,0,0,0-35-14.69A48.5,48.5,0,0,0,119,31.08,51.78,51.78,0,0,0,77.32,10.15c-28.55,0-51.7,22.92-51.7,51.19a50.75,50.75,0,0,0,14.16,35.2A54.21,54.21,0,0,0,10.15,144.6c0,30,25,54.39,55.75,54.39h1.36l4.45,23.89c1.36,7.33,5.38,13.62,12,13.62H294.32c6.58,0,10.42-6.34,12-13.62l5-23.4a46.48,46.48,0,0,0,22.14-90.26ZM246.17,48,264.6,50.6l-.88,6.21q5.3-7.38,13.65-6.19l1.36.19a17,17,0,0,1,5.45,1.71L242.89,71.05Zm42.1,8.14a22.89,22.89,0,0,1,4.55,6.52c1.73-2.11,4.66-4,8.78-5.72a13.36,13.36,0,0,1,6.94-.57l1.35.22Q321.83,58.53,324,71.2a36.28,36.28,0,0,1,0,3.88l-19.43,5.45c.42-4.17-.83-7-3.74-8.56a11.89,11.89,0,0,0-1.7-.46l-1.18-.19c-1.8-.29-3.58,1.47-5.32,5.29a6.52,6.52,0,0,0-.48,1.7l-1,6L271.5,89.81l2.15-13.13c.78-4.81-.42-8-3.59-9.72a11.3,11.3,0,0,0-1.72-.47l-1.16-.19q-2.7-.44-5.32,5.29a6.93,6.93,0,0,0-.48,1.7L257,100.38l-18.37-3,4-24.38ZM324,79.56l-6.25,32.23-18.08-3.5,4.8-24.77Zm-32.93,6.67-3.81,19.65-18.18-3.52,2.36-12.15Zm-26.79,30.71,8.23,4.78-8.59-.78ZM181.9,71l.15-.77q2.87-14.59,18.83-20.47a32.37,32.37,0,0,1,15.29-.59Q231.25,52.11,238,67a33.21,33.21,0,0,1,1.32,5.54l-22,9.32a27.23,27.23,0,0,0,1.2-4.3Q220.83,66,212.94,64.5l-.57-.11a6.38,6.38,0,0,0-7.17,3,16.93,16.93,0,0,0-2.41,6.1L202.29,76q-1.73,8.78,3.61,11.09l2.65.72q5.09,1,7.34-2.75a22.64,22.64,0,0,0,1.27-2.67l22.34-8.25a22,22,0,0,1-.3,6.12l-.53,2.69q-2.05,10.44-13.16,17.19A30.21,30.21,0,0,1,205,103.07q-15.29-3-21.75-17.46A26,26,0,0,1,181.9,71ZM186,154.9a31.89,31.89,0,0,0,5.7.52H193c2.91,0,4.35-.65,4.35-2q0-2.73-10.34-4.7-11.37-3-14.8-8.53a15.33,15.33,0,0,1-2.06-7.64q0-13.27,16.13-17.06a44.19,44.19,0,0,1,5.15-.38h2.31q10.56,0,21.51,5.87c0,.33-2.14,4.25-6.42,11.77l-6.71-1.87a30.9,30.9,0,0,0-8.1-1.37h-1.22c-2,0-3.18.85-3.53,2.56,0,1.07,2.61,2.18,7.84,3.33q11.16,3,14.8,6.37a13.35,13.35,0,0,1,4.55,10.57q0,13.68-16.12,17.06a53.91,53.91,0,0,1-5.79.38h-1.46a47,47,0,0,1-8.71-.79Zm-6.52,12.93a46,46,0,0,1-11.88-5.65V162q6.95-10.94,7.26-11h.18a37.88,37.88,0,0,0,10.12,3.74ZM133.19,55a32.37,32.37,0,0,1,14-6.07q15.15-2.68,26.83,8.79a26.3,26.3,0,0,1,5.9,11.9l.48,2.7q1.85,10.48-6.07,20.78a31.32,31.32,0,0,1-3.06,3.09l-16.58-8.58q4.54-1,5.24-5.09a25.2,25.2,0,0,0-.22-7.93q-2.05-11.59-10-10.18l-.58.1a6.37,6.37,0,0,0-5.61,5.38,16.85,16.85,0,0,0,0,6.56l.44,2.52a20.72,20.72,0,0,0,.93,3.56L123.06,71.19Q124.82,62.34,133.19,55Zm12.62,31.47a6.25,6.25,0,0,0,5.16,2.5l.67-.1,19.09,7.82a30.39,30.39,0,0,1-14.13,7.28,28.53,28.53,0,0,1-26.07-6.35l22.36-.09L128.67,95.8A25.85,25.85,0,0,1,122.49,84l-.17-.76a27.15,27.15,0,0,1-.7-6.66ZM78.34,30.84a2.11,2.11,0,0,1,2.22.27c.49.56.4,1.67.35,2.6a6.78,6.78,0,0,1-.25,2.11c-.2.42-.6.51-1.22-.13a8.91,8.91,0,0,1-1.75-3C77.41,31.7,77.68,31.13,78.34,30.84Zm-1.7,11.28a11,11,0,0,1,2.07.28A3.81,3.81,0,0,0,81,42.12a2.48,2.48,0,0,0,1.08-1.52,2.78,2.78,0,0,0,0-1.44c-.1-.42-.28-.8.06-.82s1.18.31,2,.46a3.49,3.49,0,0,0,2.18-.19,2,2,0,0,0,.95-1.5,4.93,4.93,0,0,0-.13-1.94c-.15-.53-.36-.82-.31-.95s.33-.08,1.18-.34,2.24-.8,2.6-2a4,4,0,0,0,0-1.84q10.14-.57,15.33,4.14a16.67,16.67,0,0,1,5.14,10.1,14.73,14.73,0,0,1-5.23,14.3l0,.2q8.29,2,11.33,9.39l-23.75-14a8.62,8.62,0,0,0,.28-4.48c-.48-3.11-2.36-4.61-5.66-4.53a18.72,18.72,0,0,0-3.52.31l-4.62.72-3.51-2.07c0-.29,0-.56,0-.79C76.35,42.63,76.27,42.21,76.65,42.12ZM63,33.62a3.72,3.72,0,0,1,2.2-2.15c.91-.2,1.93.33,3.53,1.35s3.78,2.53,4,3.59-1.52,1.69-3.61,1.69a10.69,10.69,0,0,1-5.66-1.49C62.38,35.75,62.56,34.64,63,33.62Zm6.27,12.65a2.21,2.21,0,0,1-.49,1.67.85.85,0,0,1-1.38-.13A11.89,11.89,0,0,1,66,44.68c-.35-1-.52-1.68-.29-2a1.53,1.53,0,0,1,1.49-.39,2,2,0,0,1,1.62,1.15A7.44,7.44,0,0,1,69.32,46.27ZM65,56.65a2.1,2.1,0,0,0,.76-1.56,7.23,7.23,0,0,0-.1-1.57c-.06-.46-.1-.84.13-.87a9.61,9.61,0,0,1,1.48.59,10.45,10.45,0,0,0,2.39.55c.67.06,1.06,0,1.31-.49a4.46,4.46,0,0,0,.37-1.92A3.79,3.79,0,0,0,71.07,50l2.52,1.18,2.2,10.3L88.5,58.81a8,8,0,0,0,.84-.22L118.66,72.3c.07.29.14.58.2.88l.25,1.15q2.22,10.42-4.87,17.71L61.59,85.78,55.94,59.31a8.54,8.54,0,0,0,2.44-.48,1.77,1.77,0,0,0,1.23-1.1c.15-.4.19-.82.68-.8a23.87,23.87,0,0,0,2.34.53A3.65,3.65,0,0,0,65,56.65Zm46.08,38.11c-.45.37-.92.73-1.4,1.09a22.38,22.38,0,0,1-6.49,2.9l-36.69,9.58L63,94.8ZM59.36,25.34a1.59,1.59,0,0,1,.76-.87,1.12,1.12,0,0,1,.92.08,1.73,1.73,0,0,1,.88.91A2.91,2.91,0,0,1,62,27a1.59,1.59,0,0,1-.68,1.12,1.94,1.94,0,0,1-1.47.18,1.26,1.26,0,0,1-1-1.08A3.93,3.93,0,0,1,59.36,25.34ZM53.21,35a2.66,2.66,0,0,1,2-.49c.56.17,1,.67,1.91,1.53A18.83,18.83,0,0,1,60,39a1,1,0,0,1-.53,1.64,4.45,4.45,0,0,1-2.66.05,10.87,10.87,0,0,1-3-1.46c-1-.65-2-1.42-2.11-2.19S52.42,35.51,53.21,35Zm-12.82,77L59.54,108l4.85,22.62A18.33,18.33,0,0,1,75,123.49l2.5-.54q11.36-2.43,20.7,6.79a25,25,0,0,1,4.93,8.35l-20.67,4.05a8.34,8.34,0,0,0-4.39-4.28,13.06,13.06,0,0,0-3.57.17l-1.15.24c-4,1.29-5.82,2.76-5.48,4.38a4.33,4.33,0,0,0-.37,2.42l-19.22,3.76Zm56.86,58a26.76,26.76,0,0,1-8.7,4,19.91,19.91,0,0,1-13.88-1.35l-.19,0,.84,3.33-19.06,4.8L49.8,155.34,68.23,150q.21,1.15.52,2.5,2.46,9.75,8.84,9.4a10.26,10.26,0,0,1,1.95-.28c3.42-.87,5.37-2.77,5.84-5.72a19.82,19.82,0,0,0-.74-7l-.38-1.52c-.17-.67-.36-1.31-.57-1.9l19.95-5.84c.25.74.47,1.49.66,2.27l.15.59Q108.85,160,97.25,170Zm12.19-31.92L131,132.65l-20.85,4.08q5.86-10.67,16.84-12l2.54-.3c4.12-.48,8.22.62,12.32,3.29l-.52-4.47L160.77,121l2.28,19.76-18.22,12.68a22.06,22.06,0,0,0-.09-4.93c-.7-4.88-1.48-7.62-2.34-8.21-.19-1.64-2.39-2.45-6.59-2.38l-1.16.13a13.25,13.25,0,0,0-3.44,1c-2.41,2-3.32,5.42-2.77,10.19l.18,1.57a19.72,19.72,0,0,0,1.79,6.8,6.25,6.25,0,0,0,4,3.1L118.3,171.95q-8.86-6.32-10.46-20.07l-.07-.6A26,26,0,0,1,109.44,138.12Zm11.72,80.56a9.17,9.17,0,0,1-4.11,1.07h-.51a7.67,7.67,0,0,1-5.34-1.94v7.54c0,.81-.58,1.34-1.73,1.59q-1.37,0-1.76-1.72V211.16q0-6.89,6.53-9.31a12.74,12.74,0,0,1,2.61-.4A9.25,9.25,0,0,1,126,210.6Q126,215.74,121.16,218.68Zm23.93-.47c0,.91-.56,1.46-1.67,1.65h-.12a1.86,1.86,0,0,1-1.73-1.37v-.58a7.69,7.69,0,0,1-5.47,1.95h-.5q-4.69,0-7.82-4.7a10.1,10.1,0,0,1-1.14-4.58q0-5.15,5-8.16a9.89,9.89,0,0,1,4.2-1q5.22,0,8.27,5.11a10.45,10.45,0,0,1,.94,4.31ZM147.47,170l-.2,0a19.92,19.92,0,0,1-12.3,6.57,26.46,26.46,0,0,1-8.57-.17l36.72-35.16,4.28,29.26L148,173.43Zm6.71,48.13c-.19,1.13-.77,1.7-1.74,1.7H150c-.94,0-1.52-.59-1.74-1.74V196.41c.13-1.25.67-1.87,1.6-1.87h.31q1.62.34,1.61,1.54v20.26h.84c.82,0,1.36.56,1.59,1.68Zm6.25,0c0,.92-.57,1.48-1.7,1.67h-.1c-.93,0-1.51-.59-1.72-1.74V203.24c.13-1.3.75-1.94,1.84-1.94,1.12.28,1.69.82,1.69,1.6Zm0-19.3c0,.9-.61,1.43-1.82,1.6q-1.31,0-1.72-1.79.35-1.79,1.85-1.79c1.12.29,1.69.82,1.69,1.59Zm21.35,19.38q0,1.26-1.67,1.59h-.17q-1.68-.31-1.67-1.72V211q0-4.44-3.77-5.81a6.66,6.66,0,0,0-1.63-.24h-.19c-2.1,0-3.73,1.1-4.89,3.29a8.47,8.47,0,0,0-.44,3.27v6.68c0,.91-.56,1.46-1.67,1.65h-.12c-.94,0-1.51-.59-1.73-1.74V203.35c.14-1.29.76-1.94,1.87-1.94q1.66.43,1.66,1.59v.26a7.89,7.89,0,0,1,5.52-1.85,9,9,0,0,1,6.77,3.16,8.76,8.76,0,0,1,2.15,5.61Zm19.47-5.89V220q0,2.4-3.48,5.08a10.1,10.1,0,0,1-5.61,1.76,9.88,9.88,0,0,1-8.27-4.45,3.74,3.74,0,0,1-.64-1.55v-.19c0-.83.53-1.36,1.59-1.6h.24c.81,0,1.44.62,1.89,1.85a6.38,6.38,0,0,0,5.19,2.6,6,6,0,0,0,5.59-3.34l.09-.68v-1.66a7.8,7.8,0,0,1-5.51,1.94h-.51q-3.71,0-6.9-3.47a9.7,9.7,0,0,1-2-5.7,9.09,9.09,0,0,1,4-7.49,9.28,9.28,0,0,1,5.23-1.68,9.28,9.28,0,0,1,9.19,8.8Zm28.21,5.82c0,.91-.56,1.46-1.67,1.65h-.12a1.86,1.86,0,0,1-1.73-1.37v-.58a7.69,7.69,0,0,1-5.47,1.95H220q-4.69,0-7.82-4.7a10.16,10.16,0,0,1-1.14-4.58q0-5.15,5-8.16a9.87,9.87,0,0,1,4.19-1q5.22,0,8.28,5.11a10.53,10.53,0,0,1,.94,4.31Zm17.61-4.41q0,2.91-4.12,5.26a9.16,9.16,0,0,1-3.77.8,8.31,8.31,0,0,1-6.89-3.83,1.73,1.73,0,0,1-.36-1v-.38q0-1.38,1.87-1.58.91,0,2.13,1.75a5,5,0,0,0,3.5,1.4,4.68,4.68,0,0,0,4-2.22l.07-.24c0-.23-.25-.36-.7-.41q-8.61-1.92-9.19-2.45a4,4,0,0,1-1.75-3.28c0-1.77,1.24-3.44,3.71-5a8.64,8.64,0,0,1,4-1.07,8.32,8.32,0,0,1,7.37,4.31l.07.62v.11q0,1.45-1.74,1.7c-.77,0-1.49-.55-2.15-1.63a4.93,4.93,0,0,0-3.56-1.52,4.57,4.57,0,0,0-4.1,2.45l0,.17c0,.23.49.38,1.47.46q7.32,1.77,8.09,2.06a4.08,4.08,0,0,1,2.1,3.49Zm6.15,4.39c0,.92-.57,1.48-1.7,1.67h-.1c-.93,0-1.51-.59-1.72-1.74V203.24c.13-1.3.75-1.94,1.84-1.94,1.12.28,1.68.82,1.68,1.6Zm0-19.3c0,.9-.61,1.43-1.82,1.6q-1.31,0-1.72-1.79.35-1.79,1.86-1.79,1.68.43,1.68,1.59Zm-11.5-39.77q1.43,2.52,12.13,4.17l-1.39,13.41-7.88-.82a42,42,0,0,1-13.42-3.76q-11.9-7.39-10-25.47l1-9.45-4.91-.51,1.43-13.74,4.91.51,1.88-18,19.5,2-1.88,18L257.63,127l-1.43,13.74-14.58-1.51-1.38,13.36A10.71,10.71,0,0,0,241.73,159.11Zm30.49,58.27.1.56v.15q-.3,1.68-1.74,1.68h-.12c-.68,0-1.57-.79-2.67-2.38l-5.52-6.88-2.13,1.37v6.3c0,.92-.57,1.48-1.71,1.67h-.1c-.88,0-1.46-.54-1.74-1.6V196.09q.35-1.68,1.61-1.68h.31q1.64.35,1.64,1.55V207.7q8.33-5.51,10-6.45h.46c1,0,1.56.6,1.74,1.82q0,1.13-2.32,2.35-3.79,2.57-4.7,3.21ZM259,175.6l1.69-18.73,14.39,20.19Zm19.86-2.17-18-18,2.67-29.57,19.07,1.72.42.25Zm4.89-51.79-9.52-.33-9.91-4.7.33-9.38,19.58.69ZM317,172.48a2.33,2.33,0,0,1-.63-2c0-.57.17-.83,1-.29a19.24,19.24,0,0,1,2.86,2.52c.55.63.13.56-.66.45A5.48,5.48,0,0,1,317,172.48Zm5,6.47a2.31,2.31,0,0,1-1.23,0,1.1,1.1,0,0,1-.76-.65,2.51,2.51,0,0,1-.11-1.09.77.77,0,0,1,.3-.63,1.08,1.08,0,0,1,.85-.07,2.29,2.29,0,0,1,1,.7,1.83,1.83,0,0,1,.49,1.11A.71.71,0,0,1,322,179Zm-.53-15.61a3.3,3.3,0,0,0-1.92.63,2,2,0,0,0-.53,1.69,2.1,2.1,0,0,0,.89,1.31c.47.38,1.06.76.78.85a14.66,14.66,0,0,1-2.7-.32,8.24,8.24,0,0,0-3.59,0,1.61,1.61,0,0,0-1,1.9,4.63,4.63,0,0,0,.91,1.5c.1.19-.31,0-1.06-.3a6.85,6.85,0,0,0-2.59-.55,1.26,1.26,0,0,0-1.29,1.44,21.35,21.35,0,0,0,.89,2.94c.15.67-.23.67-.7.92a3.93,3.93,0,0,0-1.37,1.25l-.21,0q-16.3-3.47-22.31-19.63a26.79,26.79,0,0,1-.54-12.58l.16-.77a24.38,24.38,0,0,1,5.54-11.22L307,141.76a18.35,18.35,0,0,0-2.28,3l-.66,2.22-.37,1.72q-1.5,7,5.34,11.86a10.35,10.35,0,0,0,2.36.86l1.64.35q3.86.82,8.61-1.71a2,2,0,0,0,.31,1.23c.38.63,1.1,1.27,1.06,1.61S322.18,163.26,321.42,163.35Zm7,13a3.71,3.71,0,0,1-2.44.22,2.78,2.78,0,0,1-1.64-2,6.47,6.47,0,0,1-.22-3.2c.22-.75.78-.87,1.61-.35a14.06,14.06,0,0,1,2.65,2.5c.69.82,1,1.3,1,1.74S329.07,176,328.42,176.31Zm-.48-10.78a9.2,9.2,0,0,1-3-.57c-.56-.35-.37-.94.39-1.33a6.29,6.29,0,0,1,3.11-.48,2.73,2.73,0,0,1,2,1c.34.51.31,1.12-.14,1.36A5.38,5.38,0,0,1,327.94,165.53Zm4.53,6.44a1.36,1.36,0,0,1-1.3-.34,3.2,3.2,0,0,1-.83-1.65c-.1-.54,0-.9.42-.79a5.23,5.23,0,0,1,1.49,1.1c.44.42.67.7.71,1A.67.67,0,0,1,332.47,172Zm-5.72-28.13a12.43,12.43,0,0,0-9.49-6.85,9.78,9.78,0,0,0-8.41,2.49l-17.26-8a29.14,29.14,0,0,1,26.9-9.79l2.27.33a26.3,26.3,0,0,1,20.54,14.58Q340.62,137.23,326.75,143.84Z"/><path class="cls-3" d="M264.28,116.94l-.36,4,8.59.78Zm-3.61,39.93L259,175.6l16.08,1.46Zm21.88-29.32-19.07-1.72-2.67,29.57,18,18L283,127.79Zm-40.92,11.66,14.58,1.51L257.63,127l-14.58-1.51,1.88-18-19.5-2-1.88,18-4.91-.51-1.43,13.74,4.91.51-1,9.45q-1.88,18.09,10,25.47a42,42,0,0,0,13.42,3.76l7.88.82,1.39-13.41q-10.7-1.65-12.13-4.17a10.71,10.71,0,0,1-1.49-6.55ZM175.06,151h-.18q-.3,0-7.26,11v.18a46,46,0,0,0,11.88,5.65l5.68-13.09A37.88,37.88,0,0,1,175.06,151Zm36.82-9.2q-3.64-3.34-14.8-6.37c-5.24-1.15-7.84-2.25-7.84-3.33.35-1.71,1.54-2.56,3.53-2.56H194a30.9,30.9,0,0,1,8.1,1.37l6.71,1.87c4.28-7.52,6.42-11.44,6.42-11.77q-10.94-5.88-21.51-5.87h-2.31a44.19,44.19,0,0,0-5.15.38q-16.11,3.79-16.13,17.06a15.33,15.33,0,0,0,2.06,7.64q3.44,5.49,14.8,8.53,10.33,2,10.34,4.7c0,1.3-1.44,2-4.35,2h-1.24a31.89,31.89,0,0,1-5.7-.52L184.35,169a47,47,0,0,0,8.71.79h1.46a53.9,53.9,0,0,0,5.79-.38q16.13-3.39,16.12-17.06A13.35,13.35,0,0,0,211.88,141.8Zm-48.76-.5-36.72,35.16a26.46,26.46,0,0,0,8.57.17,19.92,19.92,0,0,0,12.3-6.57l.2,0,.5,3.4,19.43-2.86Zm-.06-.51L160.77,121l-19.46,2.27.52,4.47c-4.1-2.67-8.2-3.77-12.32-3.29l-2.54.3q-11,1.28-16.84,12L131,132.65l-21.55,5.47a26,26,0,0,0-1.67,13.15l.07.6q1.6,13.75,10.46,20.07l16.11-11.22a6.25,6.25,0,0,1-4-3.1,19.72,19.72,0,0,1-1.79-6.8l-.18-1.57c-.56-4.77.36-8.17,2.77-10.19a13.25,13.25,0,0,1,3.44-1l1.16-.13c4.2-.07,6.4.73,6.59,2.38.86.59,1.63,3.33,2.34,8.21a22.06,22.06,0,0,1,.09,4.93Zm-64.85-11q-9.34-9.21-20.7-6.79l-2.51.54a18.33,18.33,0,0,0-10.61,7.08L59.54,108l-19.15,4.1,7.9,36.78,19.22-3.76a4.32,4.32,0,0,1,.37-2.42c-.34-1.62,1.48-3.09,5.48-4.38l1.15-.24a13.06,13.06,0,0,1,3.57-.17,8.34,8.34,0,0,1,4.39,4.28l20.67-4.05A25,25,0,0,0,98.2,129.75Zm6.24,12.7-.15-.59c-.2-.78-.42-1.53-.66-2.27l-19.95,5.84c.21.6.39,1.23.57,1.9l.38,1.52a19.82,19.82,0,0,1,.74,7c-.46,2.95-2.42,4.85-5.84,5.72a10.27,10.27,0,0,0-1.95.28q-6.39.35-8.84-9.4-.3-1.35-.52-2.5L49.8,155.34l6.45,25.53,19.06-4.8-.84-3.33.19,0A19.91,19.91,0,0,0,88.55,174a26.76,26.76,0,0,0,8.7-4Q108.84,160,104.44,142.45ZM322,161.27a2,2,0,0,1-.31-1.23q-4.75,2.52-8.61,1.71l-1.64-.35a10.35,10.35,0,0,1-2.36-.86q-6.85-4.82-5.34-11.86l.37-1.72.66-2.22a18.35,18.35,0,0,1,2.28-3l-16.23-9.42a24.38,24.38,0,0,0-5.54,11.22l-.16.77a26.79,26.79,0,0,0,.54,12.58q6,16.16,22.31,19.63l.21,0a3.93,3.93,0,0,1,1.37-1.25c.47-.24.85-.24.7-.92a21.35,21.35,0,0,1-.89-2.94,1.26,1.26,0,0,1,1.29-1.44,6.85,6.85,0,0,1,2.59.55c.74.28,1.16.49,1.06.3a4.63,4.63,0,0,1-.91-1.5,1.61,1.61,0,0,1,1-1.9,8.24,8.24,0,0,1,3.59,0,14.65,14.65,0,0,0,2.7.32c.28-.08-.31-.47-.78-.85a2.1,2.1,0,0,1-.89-1.31,2,2,0,0,1,.53-1.69,3.3,3.3,0,0,1,1.92-.63c.76-.08,1.56-.13,1.6-.46S322.35,161.91,322,161.27ZM320.76,122l-2.27-.33a29.14,29.14,0,0,0-26.9,9.79l17.26,8a9.78,9.78,0,0,1,8.41-2.49,12.43,12.43,0,0,1,9.49,6.85q13.86-6.61,14.55-7.26A26.3,26.3,0,0,0,320.76,122Zm9.76,42.16a2.73,2.73,0,0,0-2-1,6.3,6.3,0,0,0-3.11.48c-.76.39-.95,1-.39,1.33a9.2,9.2,0,0,0,3,.57,5.38,5.38,0,0,0,2.44,0C330.84,165.29,330.86,164.68,330.52,164.17Zm1.73,6.12a5.23,5.23,0,0,0-1.49-1.1c-.39-.1-.52.26-.42.79a3.2,3.2,0,0,0,.83,1.65,1.36,1.36,0,0,0,1.3.34.67.67,0,0,0,.49-.7C332.92,171,332.69,170.71,332.25,170.29Zm-3.86,3.18a14.06,14.06,0,0,0-2.65-2.5c-.84-.52-1.39-.4-1.61.35a6.47,6.47,0,0,0,.22,3.2,2.78,2.78,0,0,0,1.64,2,3.71,3.71,0,0,0,2.44-.22c.64-.29.92-.67.93-1.1S329.08,174.29,328.39,173.47Zm-8.17-.7a19.24,19.24,0,0,0-2.86-2.52c-.81-.54-.94-.29-1,.29a2.33,2.33,0,0,0,.63,2,5.48,5.48,0,0,0,2.56.74C320.35,173.32,320.76,173.4,320.22,172.77Zm1.82,4.4a2.29,2.29,0,0,0-1-.7,1.08,1.08,0,0,0-.85.07.77.77,0,0,0-.3.63,2.5,2.5,0,0,0,.11,1.09,1.1,1.1,0,0,0,.76.65,2.31,2.31,0,0,0,1.23,0,.71.71,0,0,0,.57-.67A1.83,1.83,0,0,0,322,177.17Zm-57.4-69.94-.33,9.38,9.91,4.7,9.52.33.48-13.72Z"/><path class="cls-4" d="M239.51,74.14l-22.34,8.25a22.64,22.64,0,0,1-1.27,2.67q-2.24,3.75-7.34,2.75l-2.65-.72q-5.33-2.3-3.61-11.09l.49-2.51a16.93,16.93,0,0,1,2.41-6.1,6.38,6.38,0,0,1,7.17-3l.57.11q7.91,1.56,5.63,13.09a27.23,27.23,0,0,1-1.2,4.3l22-9.32A33.21,33.21,0,0,0,238,67q-6.73-14.9-21.85-17.88a32.37,32.37,0,0,0-15.29.59q-16,5.86-18.83,20.47l-.15.77a26,26,0,0,0,1.31,14.65q6.46,14.47,21.75,17.46a30.21,30.21,0,0,0,20.56-2.94q11.12-6.74,13.16-17.19l.53-2.69A22,22,0,0,0,239.51,74.14ZM61.92,25.46a1.73,1.73,0,0,0-.88-.91,1.12,1.12,0,0,0-.92-.08,1.59,1.59,0,0,0-.76.87,3.93,3.93,0,0,0-.48,1.88,1.26,1.26,0,0,0,1,1.08,1.94,1.94,0,0,0,1.47-.18A1.59,1.59,0,0,0,62,27,2.91,2.91,0,0,0,61.92,25.46Zm6.92,17.92a2,2,0,0,0-1.62-1.15,1.53,1.53,0,0,0-1.49.39c-.23.37-.06,1,.29,2a11.89,11.89,0,0,0,1.43,3.13.85.85,0,0,0,1.38.13,2.21,2.21,0,0,0,.49-1.67A7.44,7.44,0,0,0,68.84,43.38Zm3.95-7c-.23-1.06-2.41-2.57-4-3.59s-2.62-1.56-3.53-1.35A3.72,3.72,0,0,0,63,33.62c-.49,1-.66,2.13.47,3a10.69,10.69,0,0,0,5.66,1.49C71.27,38.1,73,37.48,72.79,36.41Zm7.78-5.31a2.11,2.11,0,0,0-2.22-.27c-.66.29-.94.87-.64,1.85a8.91,8.91,0,0,0,1.75,3c.63.64,1,.56,1.22.13a6.78,6.78,0,0,0,.25-2.11C81,32.77,81.05,31.66,80.56,31.1ZM60,39a18.83,18.83,0,0,0-2.81-2.92c-.91-.86-1.35-1.36-1.91-1.53a2.66,2.66,0,0,0-2,.49c-.78.48-1.66,1.24-1.58,2s1.09,1.53,2.11,2.19a10.87,10.87,0,0,0,3,1.46,4.45,4.45,0,0,0,2.66-.05A1,1,0,0,0,60,39ZM271.43,90.2l-2.36,12.15,18.18,3.52,3.81-19.65Zm33-6.69-4.8,24.77,18.08,3.5L324,79.56ZM324,71.2q-2.15-12.68-14.1-14.63l-1.35-.22a13.36,13.36,0,0,0-6.94.57c-4.12,1.7-7,3.61-8.78,5.72a22.89,22.89,0,0,0-4.55-6.52L242.57,73l-4,24.38,18.37,3,4.42-27.09a6.93,6.93,0,0,1,.48-1.7q2.61-5.73,5.32-5.29l1.16.19a11.3,11.3,0,0,1,1.72.47c3.17,1.68,4.37,4.91,3.59,9.72L271.5,89.81l19.66-5.52,1-6a6.52,6.52,0,0,1,.48-1.7c1.74-3.82,3.52-5.58,5.32-5.29l1.18.19a11.89,11.89,0,0,1,1.7.46c2.9,1.55,4.15,4.39,3.74,8.56L324,75.08A36.28,36.28,0,0,0,324,71.2ZM278.72,50.81l-1.36-.19q-8.34-1.19-13.65,6.19l.88-6.21L246.17,48l-3.28,23.07,41.28-18.53A17,17,0,0,0,278.72,50.81ZM117.2,68.16q-3-7.39-11.33-9.39l0-.2a14.73,14.73,0,0,0,5.23-14.3,16.67,16.67,0,0,0-5.14-10.1q-5.2-4.71-15.33-4.14a4,4,0,0,1,0,1.84c-.36,1.23-1.76,1.78-2.6,2s-1.14.21-1.18.34.17.42.31.95a4.93,4.93,0,0,1,.13,1.94,2,2,0,0,1-.95,1.5,3.49,3.49,0,0,1-2.18.19c-.83-.15-1.67-.48-2-.46s-.17.4-.06.82a2.78,2.78,0,0,1,0,1.44A2.48,2.48,0,0,1,81,42.12a3.81,3.81,0,0,1-2.28.28,11,11,0,0,0-2.07-.28c-.38.08-.3.51-.25,1.16,0,.24,0,.5,0,.79l3.51,2.07,4.62-.72a18.72,18.72,0,0,1,3.52-.31c3.31-.07,5.18,1.43,5.66,4.53a8.62,8.62,0,0,1-.28,4.48Zm1.91,6.16-.25-1.15c-.06-.3-.13-.59-.2-.88L89.33,58.58a8,8,0,0,1-.84.22L75.79,61.52l-2.2-10.3L71.07,50a3.79,3.79,0,0,1,.29,1.35A4.46,4.46,0,0,1,71,53.31c-.25.47-.63.55-1.31.49a10.45,10.45,0,0,1-2.39-.55,9.61,9.61,0,0,0-1.48-.59c-.23,0-.19.4-.13.87a7.23,7.23,0,0,1,.1,1.57A2.1,2.1,0,0,1,65,56.65a3.65,3.65,0,0,1-2.41.8,23.87,23.87,0,0,1-2.34-.53c-.49,0-.53.4-.68.8a1.77,1.77,0,0,1-1.23,1.1,8.54,8.54,0,0,1-2.44.48l5.65,26.47L114.24,92Q121.34,84.74,119.11,74.32ZM100.47,79.5a5.87,5.87,0,0,1-5,5l-14.1,3L78.65,74.93l13-2.78q7.39-1.58,8.59,4.08A13,13,0,0,1,100.47,79.5ZM63,94.8l3.53,13.54,36.69-9.58a22.38,22.38,0,0,0,6.49-2.9c.49-.36,1-.72,1.4-1.09ZM180.44,72.29l-.48-2.7a26.3,26.3,0,0,0-5.9-11.9q-11.66-11.46-26.83-8.79a32.37,32.37,0,0,0-14,6.07q-8.38,7.37-10.14,16.22l21.87,11.31a20.72,20.72,0,0,1-.93-3.56l-.44-2.52a16.85,16.85,0,0,1,0-6.56,6.37,6.37,0,0,1,5.61-5.38l.58-.1q7.93-1.41,10,10.18a25.2,25.2,0,0,1,.22,7.93q-.7,4-5.24,5.09l16.58,8.58a31.32,31.32,0,0,0,3.06-3.09Q182.3,82.78,180.44,72.29Zm-28.8,16.55-.67.1a6.25,6.25,0,0,1-5.16-2.5l-24.19-9.91a27.15,27.15,0,0,0,.7,6.66l.17.76a25.85,25.85,0,0,0,6.18,11.84l24.21,1.69-22.36.09a28.53,28.53,0,0,0,26.07,6.35,30.39,30.39,0,0,0,14.13-7.28Z"/><path class="cls-2" d="M100.47,79.5a5.87,5.87,0,0,1-5,5l-14.1,3L78.65,74.93l13-2.78q7.39-1.58,8.59,4.08A13,13,0,0,1,100.47,79.5Z"/><path class="cls-1" d="M123.27,204.12a9.17,9.17,0,0,0-6.43-2.67,12.74,12.74,0,0,0-2.61.4q-6.53,2.41-6.53,9.31v14.06q.39,1.72,1.76,1.72c1.15-.25,1.73-.78,1.73-1.59v-7.54a7.67,7.67,0,0,0,5.34,1.94h.51a9.17,9.17,0,0,0,4.11-1.07q4.85-2.93,4.85-8.08A9.17,9.17,0,0,0,123.27,204.12Zm-.81,6.61a5.89,5.89,0,0,1-.39,2.06q-1.73,3.4-5,3.4h-.37a5,5,0,0,1-2.35-.57,5.42,5.42,0,0,1-3.06-4.9v-.32a5.43,5.43,0,0,1,.29-1.63c1.11-2.51,2.86-3.78,5.24-3.78a5.68,5.68,0,0,1,3.25,1,5.4,5.4,0,0,1,2.42,4.44Z"/><path class="cls-2" d="M122.45,210.42v.32a5.89,5.89,0,0,1-.39,2.06q-1.73,3.4-5,3.4h-.37a5,5,0,0,1-2.35-.57,5.42,5.42,0,0,1-3.06-4.9v-.32a5.43,5.43,0,0,1,.29-1.63c1.11-2.51,2.86-3.78,5.24-3.78a5.68,5.68,0,0,1,3.25,1A5.4,5.4,0,0,1,122.45,210.42Z"/><path class="cls-1" d="M144.16,206.52q-3-5.11-8.27-5.11a9.89,9.89,0,0,0-4.2,1q-5,3-5,8.16a10.1,10.1,0,0,0,1.14,4.58q3.13,4.7,7.82,4.7h.5a7.69,7.69,0,0,0,5.47-1.95v.58a1.86,1.86,0,0,0,1.73,1.37h.12c1.12-.19,1.67-.75,1.67-1.65v-7.37A10.45,10.45,0,0,0,144.16,206.52Zm-2.58,4.31a5.84,5.84,0,0,1-.68,2.6,5.56,5.56,0,0,1-4.78,2.9h-.49a5.6,5.6,0,0,1-5.46-5.64v-.18a6.72,6.72,0,0,1,.34-1.9q1.78-3.68,5.3-3.68h.07a5.77,5.77,0,0,1,2.38.51,5.58,5.58,0,0,1,3.31,5.13Z"/><path class="cls-2" d="M141.57,210.58v.26a5.84,5.84,0,0,1-.68,2.6,5.56,5.56,0,0,1-4.78,2.9h-.49a5.6,5.6,0,0,1-5.46-5.64v-.18a6.72,6.72,0,0,1,.34-1.9q1.78-3.68,5.3-3.68h.07a5.77,5.77,0,0,1,2.38.51A5.58,5.58,0,0,1,141.57,210.58Z"/><path class="cls-1" d="M154.18,218v.14c-.19,1.13-.77,1.7-1.74,1.7H150c-.94,0-1.52-.59-1.74-1.74V196.41c.13-1.25.67-1.87,1.6-1.87h.31q1.62.34,1.61,1.54v20.26h.84C153.41,216.34,153.95,216.89,154.18,218Z"/><path class="cls-1" d="M158.75,201.3c-1.09,0-1.7.64-1.84,1.94v14.88c.22,1.15.79,1.74,1.72,1.74h.1c1.13-.19,1.7-.75,1.7-1.67V202.9C160.43,202.12,159.87,201.58,158.75,201.3Zm0-4.38q-1.5,0-1.85,1.79.41,1.79,1.72,1.79c1.22-.17,1.82-.7,1.82-1.6v-.38C160.43,197.73,159.87,197.2,158.75,196.92Z"/><path class="cls-1" d="M181.79,210.18v8.09q0,1.26-1.67,1.59h-.17q-1.68-.31-1.67-1.72V211q0-4.44-3.77-5.81a6.66,6.66,0,0,0-1.63-.24h-.19c-2.1,0-3.73,1.1-4.89,3.29a8.47,8.47,0,0,0-.44,3.27v6.68c0,.91-.56,1.46-1.67,1.65h-.12c-.94,0-1.51-.59-1.73-1.74V203.35c.14-1.29.76-1.94,1.87-1.94q1.66.43,1.66,1.59v.26a7.89,7.89,0,0,1,5.52-1.85,9,9,0,0,1,6.77,3.16A8.76,8.76,0,0,1,181.79,210.18Z"/><path class="cls-1" d="M199.25,204.85a9.17,9.17,0,0,0-7.11-3.41,9.28,9.28,0,0,0-5.23,1.68,9.09,9.09,0,0,0-4,7.49,9.7,9.7,0,0,0,2,5.7q3.18,3.47,6.9,3.47h.51a7.8,7.8,0,0,0,5.51-1.94v1.66l-.09.68a6,6,0,0,1-5.59,3.34,6.38,6.38,0,0,1-5.19-2.6c-.45-1.23-1.09-1.85-1.89-1.85h-.24c-1.06.24-1.59.77-1.59,1.6v.19a3.74,3.74,0,0,0,.64,1.55,9.88,9.88,0,0,0,8.27,4.45,10.1,10.1,0,0,0,5.61-1.76q3.48-2.69,3.48-5.08v-7.64l.07-2.14A9.2,9.2,0,0,0,199.25,204.85Zm-1.4,6a7.78,7.78,0,0,1-.28,1.72q-1.78,3.7-5.24,3.71H192a6.38,6.38,0,0,1-1.78-.29q-3.74-1.73-3.74-5.27v-.31a5.78,5.78,0,0,1,.34-1.84c1.18-2.44,2.93-3.66,5.24-3.66h.24a8.7,8.7,0,0,1,1.81.28q3.78,1.75,3.77,5.28Z"/><path class="cls-2" d="M197.85,210.48v.39a7.78,7.78,0,0,1-.28,1.72q-1.78,3.7-5.24,3.71H192a6.38,6.38,0,0,1-1.78-.29q-3.74-1.73-3.74-5.27v-.31a5.78,5.78,0,0,1,.34-1.84c1.18-2.44,2.93-3.66,5.24-3.66h.24a8.7,8.7,0,0,1,1.81.28Q197.85,207,197.85,210.48Z"/><path class="cls-1" d="M228.54,206.52q-3.06-5.11-8.28-5.11a9.87,9.87,0,0,0-4.19,1q-5,3-5,8.16a10.16,10.16,0,0,0,1.14,4.58q3.13,4.7,7.82,4.7h.5a7.69,7.69,0,0,0,5.47-1.95v.58a1.86,1.86,0,0,0,1.73,1.37h.12c1.11-.19,1.67-.75,1.67-1.65v-7.37A10.53,10.53,0,0,0,228.54,206.52Zm-2.59,4.31a5.84,5.84,0,0,1-.68,2.6,5.56,5.56,0,0,1-4.78,2.9H220a5.6,5.6,0,0,1-5.46-5.64v-.18a6.72,6.72,0,0,1,.34-1.9q1.78-3.68,5.3-3.68h.07a5.77,5.77,0,0,1,2.38.51,5.58,5.58,0,0,1,3.31,5.13Z"/><path class="cls-2" d="M225.95,210.58v.26a5.84,5.84,0,0,1-.68,2.6,5.56,5.56,0,0,1-4.78,2.9H220a5.6,5.6,0,0,1-5.46-5.64v-.18a6.72,6.72,0,0,1,.34-1.9q1.78-3.68,5.3-3.68h.07a5.77,5.77,0,0,1,2.38.51A5.58,5.58,0,0,1,225.95,210.58Z"/><path class="cls-1" d="M247.08,213.74v.05q0,2.91-4.12,5.26a9.16,9.16,0,0,1-3.77.8,8.31,8.31,0,0,1-6.89-3.83,1.73,1.73,0,0,1-.36-1v-.38q0-1.38,1.87-1.58.91,0,2.13,1.75a5,5,0,0,0,3.5,1.4,4.68,4.68,0,0,0,4-2.22l.07-.24c0-.23-.25-.36-.7-.41q-8.61-1.92-9.19-2.45a4,4,0,0,1-1.75-3.28c0-1.77,1.24-3.44,3.71-5a8.64,8.64,0,0,1,4-1.07,8.32,8.32,0,0,1,7.37,4.31l.07.63v.11q0,1.45-1.74,1.7c-.77,0-1.49-.55-2.15-1.63a4.93,4.93,0,0,0-3.56-1.52,4.57,4.57,0,0,0-4.1,2.45l0,.17c0,.23.49.38,1.47.46q7.32,1.77,8.09,2.06A4.08,4.08,0,0,1,247.08,213.74Z"/><path class="cls-1" d="M251.55,201.3c-1.09,0-1.7.64-1.84,1.94v14.88c.21,1.15.79,1.74,1.72,1.74h.1c1.13-.19,1.7-.75,1.7-1.67V202.9C253.23,202.12,252.67,201.58,251.55,201.3Zm0-4.38q-1.5,0-1.86,1.79.41,1.79,1.72,1.79c1.22-.17,1.82-.7,1.82-1.6v-.38Q253.23,197.34,251.55,196.92Z"/><path class="cls-1" d="M272.22,217.39l.1.56v.15q-.3,1.68-1.74,1.68h-.12c-.68,0-1.57-.79-2.67-2.38l-5.52-6.88-2.13,1.37v6.3c0,.92-.57,1.48-1.71,1.67h-.1c-.88,0-1.46-.54-1.74-1.6V196.09q.35-1.68,1.61-1.68h.31q1.64.35,1.64,1.55V207.7q8.33-5.51,10-6.45h.46c1,0,1.56.6,1.74,1.82q0,1.13-2.32,2.35-3.79,2.57-4.7,3.21Z"/></g></g></svg>